<?xml version="1.0" encoding="UTF-8"?>
<svg width="309px" height="35px" viewBox="0 0 309 35" version="1.1" xmlns="http://www.w3.org/2000/svg" xmlns:xlink="http://www.w3.org/1999/xlink">
    <!-- Generator: Sketch 52.2 (67145) - http://www.bohemiancoding.com/sketch -->
    <title>LOGO ZT blanc cadré sans cercles</title>
    <desc>Created with Sketch.</desc>
    <g id="LOGO" stroke="none" stroke-width="1" fill="none" fill-rule="evenodd">
        <g id="LOGO-ZT-blanc-cadré-sans-cercles" fill="#FFFFFF">
            <g id="Zone-Track">
                <polygon id="Path" points="29 28.5894509 29 35 0 35 0 29.9010037 18.1788124 7.4105491 0.404408457 7.4105491 0.404408457 1 28.2955466 1 28.2955466 6.09899626 10.1558704 28.5894509"></polygon>
                <path d="M37.9841814,32.7228493 C35.2524339,31.2860432 32.9694748,29.1198088 31.3873115,26.4632686 C28.2042295,20.9122048 28.2042295,14.0812996 31.3873115,8.53023577 C32.9732507,5.87673664 35.2552493,3.71141363 37.9841814,2.27065507 C43.9256932,-0.756885022 50.9505996,-0.756885022 56.8921114,2.27065507 C59.6163781,3.72038356 61.8983644,5.88351872 63.495618,8.53023577 C65.9537033,12.5850589 66.6386181,17.4767895 65.3891786,22.0542372 C64.1397392,26.6316848 61.0662876,30.4906001 56.8921114,32.7228493 C50.9526687,35.7590502 43.9236241,35.7590502 37.9841814,32.7228493 Z M52.8437305,26.949385 C54.4358231,26.0459192 55.7457214,24.7154514 56.6266438,23.1070679 C58.45834,19.5949897 58.45834,15.4051738 56.6266438,11.8930956 C55.7457214,10.2847121 54.4358231,8.95424425 52.8437305,8.05077853 C49.4798483,6.21280556 45.4163546,6.21280556 42.0524724,8.05077853 C40.4623953,8.95466128 39.1547461,10.285179 38.2761958,11.8930956 C36.4444996,15.4051738 36.4444996,19.5949897 38.2761958,23.1070679 C39.1547461,24.7149845 40.4623953,26.0455022 42.0524724,26.949385 C45.4163546,28.7873579 49.4798483,28.7873579 52.8437305,26.949385 Z" id="Shape" fill-rule="nonzero"></path>
                <polygon id="Path" points="100 1 100 35 93.7875536 35 77.4742489 14.3564259 77.4742489 35 70 35 70 1 76.2575107 1 92.5257511 21.6435741 92.5257511 1"></polygon>
                <polygon id="Path" points="133 28.6898248 133 35 107 35 107 1 132.411795 1 132.411795 7.31686676 114.71937 7.31686676 114.71937 14.6776225 130.316726 14.6776225 130.316726 20.800433 114.71937 20.800433 114.71937 28.66975"></polygon>
                <polygon id="Path" points="156.649051 7.4105491 146 7.4105491 146 1 175 1 175 7.4105491 164.350949 7.4105491 164.350949 35 156.649051 35"></polygon>
                <path d="M198.862475,35 L192.548323,25.5328168 L185.576983,25.5328168 L185.576983,35 L178,35 L178,1.00511822 L192.174628,1.00511822 C194.768324,0.942461828 197.345,1.45570095 199.732282,2.5105007 C201.742176,3.40788208 203.457052,4.89340777 204.667629,6.78578696 C205.848923,8.74871624 206.449322,11.0285649 206.394357,13.342564 C206.56111,18.0318785 203.863352,22.3211363 199.661409,24.0475061 L207,34.9732376 L198.862475,35 Z M196.929571,8.94684714 C195.744057,7.92095686 194.013034,7.41024191 191.736503,7.4147023 L185.564097,7.41467334 L185.564097,19.2637351 L191.775161,19.2637351 C194.047397,19.2637351 195.77842,18.7463296 196.968229,17.7115185 C198.10569,16.5593744 198.747111,14.9792111 198.747111,13.3291828 C198.747111,11.6791545 198.10569,10.0989912 196.968229,8.94684714 L196.929571,8.94684714 Z" id="Shape" fill-rule="nonzero"></path>
                <path d="M234.048104,27.7195434 L218.718048,27.7195434 L215.794944,35 L208,35 L222.712956,1 L230.241573,1 L245,35 L236.971208,35 L234.048104,27.7195434 Z M231.638167,21.743948 L226.441538,8.72210195 L221.147472,21.743948 L231.638167,21.743948 Z" id="Shape" fill-rule="nonzero"></path>
                <path d="M251.60456,32.7223819 C248.993313,31.2896545 246.811823,29.134806 245.299853,26.4946727 C242.233382,20.913414 242.233382,14.0581573 245.299853,8.47689858 C246.813241,5.8362598 248.994223,3.67961136 251.60456,2.24253583 C256.796739,-0.481035761 262.865314,-0.735722559 268.251028,1.5439146 C270.477998,2.53072667 272.448316,4.05399064 274,5.98847631 L269.177251,10.6459512 C267.185964,8.08781041 264.181697,6.617518 261.020098,6.65382986 C259.143117,6.62096801 257.290014,7.09549684 255.641616,8.0311117 C254.08962,8.92257353 252.811736,10.2536287 251.955886,11.8702017 C250.192897,15.3793301 250.192897,19.565627 251.955886,23.0747554 C252.811736,24.6913285 254.08962,26.0223836 255.641616,26.9138454 C257.290014,27.8494603 259.143117,28.3239891 261.020098,28.2911273 C264.183346,28.3353631 267.190767,26.8635272 269.177251,24.299006 L274,28.9564808 C272.459795,30.9149256 270.487288,32.4558616 268.251028,33.4476173 C265.826067,34.5099952 263.216177,35.0378344 260.585732,34.997891 C257.456104,35.0365535 254.367484,34.2540072 251.60456,32.7223819 Z" id="Path"></path>
                <polygon id="Path" points="289.821384 21.6514555 285.465801 26.4130606 285.465801 35 278 35 278 1.02006294 285.465801 1.02006294 285.465801 16.8764752 299.835393 1 308.18253 1 294.770911 16.1475216 309 34.9799371 300.20581 34.9799371"></polygon>
            </g>
        </g>
    </g>
</svg>